<svg width="184" height="60" viewBox="0 0 184 60" fill="none" xmlns="http://www.w3.org/2000/svg">
<path d="M15.9554 0.189362C15.9554 0.189362 15.6309 0.672873 15.5383 0.94552C14.7318 3.31881 14.4442 5.87357 14.4066 8.37867C14.3939 9.22491 14.5237 10.0739 14.7135 10.8978C14.9852 12.0775 15.3553 13.248 15.8954 14.3296C16.2877 15.115 16.8142 15.8314 17.3703 16.5092C18.2663 17.6013 19.282 18.5964 20.3473 19.5222C22.6524 21.5255 27.697 24.9881 27.697 24.9881C27.697 24.9881 27.9387 23.1694 27.986 22.2545C28.1346 19.3846 28.233 16.4949 27.9692 13.6348C27.8738 12.6009 27.7237 11.5597 27.4052 10.5726C26.9949 9.30101 26.4657 8.03816 25.6911 6.95238C24.576 5.38922 23.1137 4.07337 21.5731 2.93254C20.3849 2.05276 19.0337 1.40571 17.6851 0.802066C17.1268 0.552093 15.9554 0.189362 15.9554 0.189362Z" fill="#FC640C"/>
<path d="M42.7073 5.79821C41.1932 6.30939 39.7381 7.02513 38.3836 7.87743C37.6307 8.35115 36.8617 8.85545 36.2984 9.54599C34.732 11.4663 33.5265 13.7666 32.9096 16.169C32.4325 18.027 32.0409 19.9791 31.2367 21.7449C30.5333 23.2894 28.5189 26.048 28.5189 26.048C28.5189 26.048 31.2181 25.7651 32.5026 25.3528C33.707 24.9662 34.8304 24.3434 35.9254 23.7068C37.0341 23.0624 38.0917 22.3232 39.0916 21.5184C39.9629 20.817 40.8416 20.0987 41.5461 19.2284C42.7292 17.7669 43.84 16.17 44.4531 14.3906C45.021 12.7423 44.6928 10.8977 45.0923 9.20078C45.2549 8.51053 45.346 7.77507 45.731 7.18514C46.1784 6.4996 46.4967 5.93697 47.5738 5.56626C47.5738 5.56626 45.9461 5.2619 45.1259 5.30091C44.3043 5.3399 43.4876 5.53481 42.7073 5.79821Z" fill="#FC640C"/>
<path d="M45.5382 18.9272C45.5382 18.9272 43.5367 20.564 42.6344 21.4872C41.8046 22.3362 41.0675 23.2738 40.3398 24.2126C39.6223 25.1384 38.8879 26.0608 38.3008 27.0749C37.7512 28.0243 37.3199 29.0252 36.8631 30.0165C36.3473 31.1358 35.8785 32.2832 35.3925 33.4087C34.9437 34.4478 34.1834 36.4841 34.1834 36.4841C34.1834 36.4841 35.7307 35.3839 36.5113 34.7637C37.3046 34.1333 38.1104 33.5125 38.8364 32.8048C40.2221 31.4537 41.5992 30.0554 42.6903 28.4594C43.8749 26.7266 44.6786 24.8006 45.0587 22.8203C45.0587 22.8203 45.3687 21.2803 45.4556 20.5008C45.5137 19.9787 45.5382 18.9272 45.5382 18.9272Z" fill="#FC640C"/>
<path d="M29.2765 27.3645C28.8862 27.4502 28.4887 27.6123 28.1947 27.8848C27.669 28.372 27.2185 29.0391 27.115 29.7476C26.965 30.7754 27.1896 31.7562 27.707 32.653C28.1423 33.4075 28.9269 33.8928 29.7041 34.2719C30.4754 34.6482 32.2475 35.0432 32.2475 35.0432C32.2475 35.0432 33.1893 33.4456 33.3654 32.5345C33.5238 31.7141 33.4848 30.8141 33.2862 29.9899C33.1924 29.6002 32.9359 29.0616 32.6151 28.6988C32.0835 28.0978 31.4744 27.605 30.6324 27.3387C30.2016 27.2025 29.7129 27.2687 29.2765 27.3645Z" fill="#F23322"/>
<path d="M8.03623 18.3615C8.03623 18.3615 11.666 18.5709 13.3722 19.1352C15.808 19.941 17.9411 21.4172 20.2319 22.5453C21.2589 23.051 23.3185 24.0509 23.3185 24.0509C23.3185 24.0509 19.8014 20.6394 17.7833 19.5418C16.3732 18.7748 14.8385 18.1368 13.2469 17.9299C11.5198 17.7053 9.87321 17.8307 8.03623 18.3615Z" fill="#B4D930"/>
<path d="M0.930902 35.6884C0.930902 35.6884 1.59029 37.2244 2.00776 37.9467C2.996 39.6563 4.14371 41.2653 5.47626 42.7191C7.23121 44.6338 9.2269 46.4972 11.2631 47.9312C16.7585 51.429 22.5519 54.0838 28.6434 55.8957C33.7381 57.5651 39.1659 58.6276 44.5565 59.1246C46.9406 59.3444 49.3549 59.229 51.7402 59.0079C53.897 58.8081 55.8923 58.6573 58.1485 57.9176C58.1485 57.9176 50.337 57.623 46.4717 57.093C44.9433 56.8835 43.4139 56.6131 41.938 56.1643C41.4652 56.0205 41.0194 55.7989 40.5657 55.6028C38.5729 54.7413 36.5756 53.8833 34.6393 52.9009C31.6611 51.3898 28.9206 49.5297 25.9109 48.0824C24.0021 47.1644 22.0537 46.2254 20.0126 45.6108C17.3258 44.8017 14.4689 44.7007 11.7428 44.0359C10.8282 43.8129 9.89358 43.6177 9.03654 43.2277C7.67641 42.6087 6.39777 41.7853 5.24631 40.8309C4.06338 39.8504 3.0523 38.6661 2.10048 37.4579C1.6632 36.9028 0.930902 35.6884 0.930902 35.6884Z" fill="#B4D930"/>
<path d="M15.2341 34.1299C14.4218 34.1319 12.6033 33.951 12.6033 33.951C14.453 34.5047 16.1604 35.461 17.7254 36.8199C17.7254 36.8199 19.7801 40.3085 21.017 41.9022C21.7021 42.7849 22.4768 43.5987 23.2895 44.3641C24.3089 45.324 25.3846 46.2333 26.5404 47.022C29.9723 49.3639 33.6508 51.3475 37.4022 53.1293C39.9107 54.3207 42.4823 55.4246 45.1551 56.1771C45.7058 56.3321 46.8458 56.4748 46.8458 56.4748C46.8458 56.4748 45.4271 55.9114 44.7409 55.5987C43.9656 55.2455 43.2281 54.8443 42.515 54.3878C41.4571 53.7109 40.6298 53.035 39.7549 52.2655C39.1324 51.7179 38.522 51.1025 37.9515 50.5521C35.9163 48.589 33.7313 46.6197 31.7704 44.5068C30.88 43.5474 30.0348 42.5435 29.2408 41.5019C28.4834 40.5085 27.1148 38.4141 27.1148 38.4141C28.3878 38.0166 29.5916 38.0176 30.5482 38.6514C30.9938 38.9468 31.5559 39.6109 31.5559 39.6109C31.5559 39.6109 31.4851 39.1391 31.3871 38.9284C31.1451 38.408 30.7441 37.9949 30.3001 37.6598C28.1876 36.0659 25.6036 35.1683 23.0883 34.3518C22.4556 34.1464 21.793 34.0311 21.1315 33.9598C19.6523 33.8006 18.1521 33.7712 16.6679 33.8847C16.1847 33.9217 15.7187 34.1287 15.2341 34.1299Z" fill="#B4D930"/>
<path d="M35.9073 35.7691L34.3648 36.9365C34.3648 36.9365 34.0884 39.9001 34.1924 41.6422C34.2123 41.9749 34.4177 43.1421 34.687 43.8438C35.1362 45.0144 35.6855 45.9453 36.5287 47.1202C39.6 51.3995 43.5974 55.3292 49.2538 56.4488C49.5802 56.5134 50.2328 56.6449 50.2328 56.6449C50.2328 56.6449 48.2693 55.9572 47.3521 55.4739C43.449 53.4174 40.2152 49.669 37.7151 45.8829C37.1258 44.9904 36.829 43.9265 36.5239 42.8995C36.2885 42.1071 36.1285 41.289 36.0365 40.4668C35.8534 38.83 35.9073 35.7691 35.9073 35.7691Z" fill="#B4D930"/>
<path d="M3.29377 24.6898C4.64052 23.8252 6.10798 23.1355 7.61742 22.6106C8.45647 22.3187 9.32919 22.0335 10.2161 22.0266C12.6827 22.0075 15.2153 22.5102 17.4563 23.5383C19.1895 24.3333 20.9415 25.2546 22.8093 25.7354C24.4431 26.156 27.838 26.3132 27.838 26.3132C27.838 26.3132 25.9218 28.2499 24.7958 28.9968C23.7399 29.6972 22.5528 30.1854 21.3729 30.6429C20.1784 31.106 18.943 31.4696 17.6932 31.7466C16.6041 31.9879 15.4974 32.2245 14.3829 32.2289C12.5113 32.2363 10.5808 32.102 8.82274 31.4629C7.19421 30.8708 5.9779 29.4533 4.41774 28.6988C3.78311 28.3919 3.15851 28.0006 2.46132 27.9311C1.6511 27.8504 1.01692 27.7458 0.0534155 28.3564C0.0534155 28.3564 0.842635 26.8897 1.38871 26.2717C1.9356 25.6526 2.59973 25.1354 3.29377 24.6898Z" fill="#FC640C"/>
<path d="M34.9934 5.50335C34.9934 5.50335 32.8706 8.47904 32.2321 10.1708C31.3206 12.5862 31.1167 15.1858 30.5451 17.6903C30.2888 18.813 29.7638 21.0555 29.7638 21.0555C29.7638 21.0555 29.3461 16.1543 29.7696 13.8828C30.0656 12.2956 30.5394 10.6919 31.3813 9.31467C32.2951 7.82016 33.428 6.60885 34.9934 5.50335Z" fill="#B4D930"/>
<path d="M64.0187 29.4847C63.9472 29.6526 63.6734 29.7845 63.1972 29.8804C62.721 29.9763 61.9591 30.0843 60.9115 30.2041C60.6019 30.2281 60.1376 30.2521 59.5186 30.276C58.9233 30.3 58.2686 30.3239 57.5543 30.3479C56.8638 30.3718 56.2328 30.3838 55.6614 30.3837C55.09 30.3597 54.6971 30.3237 54.4828 30.2757C54.4828 30.2757 54.4233 30.3357 54.3042 30.4556C54.209 30.5756 54.1614 30.7315 54.1614 30.9234C53.9947 31.2112 53.7804 31.655 53.5184 32.2546C53.2803 32.8543 53.0064 33.5139 52.6969 34.2335C52.4111 34.9531 52.1373 35.6727 51.8753 36.3924C51.6372 37.112 51.4348 37.7356 51.2681 38.2633C51.1014 38.791 51.018 39.1508 51.018 39.3427C50.8037 39.9184 50.6727 40.4102 50.6251 40.8179C50.5774 41.2257 50.4941 41.4656 50.375 41.5375C50.3512 41.6335 50.1965 41.6575 49.9107 41.6095C49.625 41.5615 49.3869 41.4296 49.1965 41.2137C48.9108 40.9978 48.7441 40.8058 48.6965 40.6379C48.6727 40.446 48.7441 40.0862 48.9108 39.5585C48.9823 39.2467 49.1014 38.7909 49.2681 38.1913C49.4586 37.5676 49.661 36.884 49.8753 36.1404C50.1135 35.3968 50.3516 34.6772 50.5897 33.9816C50.8517 33.262 51.1017 32.6743 51.3398 32.2185C51.6018 31.7628 51.7685 31.355 51.8399 30.9952C51.9114 30.6114 52.0066 30.2636 52.1257 29.9518C52.1019 29.6879 52.1019 29.508 52.1257 29.4121C52.1495 29.3161 52.2448 29.1722 52.4115 28.9803C52.5305 28.8844 52.6734 28.7165 52.8401 28.4766C53.0305 28.2128 53.2449 27.817 53.483 27.2893C53.5544 27.0494 53.6616 26.7256 53.8045 26.3178C53.9712 25.886 54.1259 25.4543 54.2688 25.0225C54.4117 24.5668 54.5427 24.183 54.6618 23.8711C54.7808 23.5593 54.8404 23.3914 54.8404 23.3674C54.888 23.2715 54.9594 23.0916 55.0547 22.8277C55.1499 22.5399 55.2214 22.312 55.269 22.1441C55.3643 21.8083 55.4357 21.5324 55.4833 21.3165C55.5548 21.1007 55.5429 20.9927 55.4476 20.9927C55.2571 21.0407 54.8762 21.0766 54.3048 21.1006C54.019 21.1486 53.8047 21.1845 53.6619 21.2085C53.5428 21.2085 53.4357 21.2205 53.3405 21.2445C53.1024 21.2684 52.8881 21.2444 52.6976 21.1725C52.5071 21.1005 52.4119 20.9566 52.4119 20.7407C52.4595 20.3569 52.5905 20.0451 52.8048 19.8052C53.0429 19.5413 53.3406 19.3974 53.6977 19.3735C53.8644 19.3255 54.0429 19.2895 54.2334 19.2656C54.4477 19.2176 54.7334 19.1457 55.0906 19.0497C55.543 18.9538 55.8882 18.8819 56.1263 18.8339C56.3882 18.7619 56.5906 18.75 56.7335 18.7979C56.8525 18.726 56.9597 18.654 57.0549 18.5821C57.1502 18.4861 57.1978 18.3902 57.1978 18.2942C57.1978 18.1743 57.2454 18.0903 57.3407 18.0424C57.4597 17.9704 57.5907 17.9344 57.7335 17.9345C57.8764 17.9105 58.0192 17.9225 58.1621 17.9705C58.3288 18.0184 58.4478 18.1024 58.5192 18.2223C58.5669 18.2943 58.674 18.3543 58.8407 18.4023C59.0073 18.4503 59.3049 18.4503 59.7335 18.4023C60.1859 18.3304 60.8169 18.2105 61.6264 18.0426C62.055 17.9947 62.5907 17.9467 63.2336 17.8988C63.9003 17.8508 64.4241 17.8868 64.805 18.0068C65.2098 17.9349 65.5669 17.9109 65.8765 17.9349C66.2098 17.9349 66.436 17.887 66.555 17.791C67.055 17.887 67.4122 17.959 67.6265 18.007C67.8646 18.031 68.055 18.1029 68.1979 18.2229C68.2931 18.3188 68.3169 18.4148 68.2693 18.5107C68.2455 18.5827 68.2336 18.6187 68.2336 18.6187C68.1383 18.5707 68.1503 18.5827 68.2693 18.6547C68.3883 18.7026 68.4717 18.7506 68.5193 18.7986C68.686 18.8706 68.7931 18.9665 68.8407 19.0865C68.8883 19.1824 68.9121 19.2784 68.9121 19.3743C68.9121 19.4703 68.9002 19.5542 68.8764 19.6262C68.8526 19.8421 68.7335 19.974 68.5192 20.0219C68.3049 20.0459 67.7692 20.0459 66.9121 20.0219C65.8883 19.8779 64.8763 19.8298 63.8763 19.8778C62.9001 19.9017 61.7573 20.0096 60.4477 20.2014C59.9715 20.2254 59.5429 20.2973 59.162 20.4172C58.8048 20.5132 58.6024 20.5611 58.5548 20.5611C58.4596 20.5611 58.2929 20.729 58.0548 21.0648C57.8167 21.3766 57.5905 21.8444 57.3761 22.468C57.2809 22.6359 57.1142 23.0197 56.8761 23.6194C56.6379 24.2191 56.376 24.8667 56.0902 25.5623C55.8283 26.2579 55.5902 26.8696 55.3759 27.3973C55.1853 27.925 55.0663 28.2129 55.0187 28.2608C55.352 28.3568 55.8877 28.4048 56.6258 28.4048C57.3877 28.4049 58.2211 28.3809 59.1258 28.333C60.0544 28.2611 60.8997 28.1892 61.6616 28.1173C62.0187 28.0453 62.3878 27.9854 62.7687 27.9374C63.1735 27.8655 63.4354 27.8535 63.5545 27.9015C63.6735 27.9735 63.7806 28.1174 63.8759 28.3333C63.9711 28.5252 64.0306 28.7291 64.0544 28.945C64.102 29.1609 64.0901 29.3408 64.0187 29.4847Z" fill="#F23322"/>
<path d="M67.3264 40.8548C66.874 40.9747 66.505 40.8788 66.2193 40.5669C65.9574 40.2551 65.8026 39.7753 65.755 39.1277C65.7075 38.48 65.7789 37.7124 65.9695 36.8249C66.0885 36.5371 66.1838 36.2612 66.2552 35.9974C66.3267 35.7095 66.3624 35.4816 66.3624 35.3137C66.41 35.0739 66.5053 34.726 66.6482 34.2703C66.7911 33.7906 66.9459 33.2988 67.1125 32.7951C67.2792 32.2914 67.434 31.8476 67.5769 31.4638C67.7436 31.0561 67.8508 30.8042 67.8984 30.7082C67.9936 30.7083 68.077 30.6243 68.1484 30.4564C68.2198 30.2885 68.2556 30.1206 68.2556 29.9527C68.2556 29.7608 68.2913 29.5449 68.3627 29.305C68.458 29.0651 68.5532 28.8972 68.6485 28.8013C68.6485 28.6814 68.6723 28.5494 68.7199 28.4055C68.7914 28.2376 68.8271 28.1057 68.8271 28.0097C68.8271 27.9138 68.8509 27.8178 68.8986 27.7219C68.97 27.6259 69.0057 27.53 69.0057 27.434C69.1724 27.1222 69.3867 26.6305 69.6487 25.9589C69.9344 25.2632 70.2321 24.4957 70.5416 23.6561C70.875 22.8166 71.1846 21.989 71.4704 21.1735C71.7561 20.3579 71.9824 19.6743 72.149 19.1226C72.3396 18.5469 72.4348 18.1991 72.4348 18.0792C72.4348 17.8873 72.4825 17.7434 72.5777 17.6474C72.6729 17.5515 72.8158 17.5035 73.0063 17.5035C73.0777 17.4316 73.1611 17.3836 73.2563 17.3596C73.3753 17.3356 73.4825 17.3236 73.5777 17.3236C73.5777 17.3236 73.6253 17.3716 73.7206 17.4676C73.8158 17.5635 73.9587 17.7075 74.1491 17.8994C74.3396 18.0673 74.4467 18.2592 74.4705 18.4751C74.5181 18.691 74.5419 18.9428 74.5419 19.2307C74.5419 19.5425 74.5062 19.8184 74.4347 20.0582C74.3633 20.2981 74.2204 20.6459 74.0061 21.1017C73.7918 21.5574 73.4584 22.265 73.006 23.2245C72.8155 23.7042 72.6131 24.16 72.3988 24.5917C72.1844 24.9995 72.0773 25.2514 72.0773 25.3473C72.0773 25.4433 72.0297 25.5872 71.9344 25.7791C71.863 25.971 71.7796 26.2108 71.6844 26.4987C71.5891 26.6906 71.4581 26.9784 71.2915 27.3622C71.1248 27.722 70.9462 28.1178 70.7557 28.5495C70.589 28.9573 70.4461 29.3171 70.327 29.629C70.208 29.9168 70.1484 30.0847 70.1484 30.1327C70.1484 30.2286 70.1365 30.3246 70.1127 30.4205C70.1127 30.5165 70.0651 30.6124 69.9698 30.7084C69.8746 30.7084 69.8151 30.7803 69.7912 30.9242C69.7912 31.0442 69.7912 31.1041 69.7912 31.1041C69.7912 31.344 69.6007 31.9797 69.2197 33.0111C68.8387 34.3304 68.4815 35.5417 68.1481 36.6451C67.8385 37.7485 67.6837 38.636 67.6836 39.3077C67.6836 39.8834 67.6717 40.2672 67.6478 40.4591C67.624 40.627 67.5169 40.7589 67.3264 40.8548Z" fill="#F23322"/>
<path d="M74.7531 40.3155C74.4436 40.3155 74.1936 40.2555 74.0031 40.1356C73.8364 40.0156 73.6222 39.8477 73.3603 39.6318C72.9079 39.152 72.5865 38.6963 72.3961 38.2645C72.2056 37.8087 72.1461 37.3769 72.2176 36.9692C72.289 36.7773 72.3128 36.5974 72.289 36.4295C72.289 36.2376 72.289 36.1416 72.289 36.1416C72.17 36.0217 72.1343 35.9497 72.1819 35.9257C72.2295 35.8777 72.2771 35.8058 72.3248 35.7098C72.4676 35.7098 72.5152 35.5779 72.4676 35.3141C72.42 35.1222 72.5153 34.7024 72.7534 34.0547C72.9916 33.4071 73.2892 32.7954 73.6464 32.2198C73.7893 31.9799 74.0036 31.6681 74.2893 31.2843C74.575 30.8765 74.8846 30.4807 75.218 30.097C75.5751 29.6892 75.8966 29.3654 76.1823 29.1255C76.7776 28.6218 77.3014 28.2501 77.7538 28.0102C78.2062 27.7704 78.6943 27.5905 79.2181 27.4706C79.742 27.3507 80.0991 27.2907 80.2896 27.2907C80.5039 27.2908 80.7896 27.4827 81.1467 27.8665C81.6943 28.1064 82.0872 28.3943 82.3252 28.7301C82.5871 29.0659 82.7538 29.5577 82.8252 30.2053C82.8966 30.925 82.837 31.7525 82.6465 32.688C82.4797 33.5995 81.9201 34.7389 80.9677 36.1061C80.3724 36.9696 79.8247 37.6172 79.3247 38.049C78.8247 38.4567 78.2294 38.8645 77.5389 39.2722C77.0389 39.608 76.5865 39.8599 76.1817 40.0278C75.7769 40.1717 75.3007 40.2676 74.7531 40.3155ZM78.1819 36.5017C78.7534 35.8541 79.2058 35.2425 79.5392 34.6668C79.8964 34.0911 80.2297 33.3595 80.5393 32.472C80.6346 32.2082 80.6941 31.8843 80.7179 31.5005C80.7418 31.0927 80.7299 30.7209 80.6823 30.3851C80.6585 30.0253 80.5752 29.8214 80.4323 29.7734C80.1466 29.6055 79.8014 29.5575 79.3966 29.6294C78.9918 29.6774 78.5513 29.9053 78.0751 30.313C77.337 30.9366 76.6941 31.7162 76.1464 32.6517C75.5987 33.5632 75.0629 34.6066 74.5391 35.7819C74.1819 36.6454 74.0985 37.3411 74.2889 37.8688C74.5032 38.3725 74.9437 38.5525 75.6104 38.4086C76.3009 38.2407 77.158 37.6051 78.1819 36.5017Z" fill="#F23322"/>
<path d="M88.5225 39.7046C88.2844 39.8725 88.1177 39.9565 88.0225 39.9565C87.9273 39.9325 87.7487 39.7885 87.4868 39.5247C87.0344 39.0929 86.7131 38.2773 86.5226 37.0779C86.356 35.8545 86.2728 34.1394 86.2729 31.9326C86.3682 30.9491 86.4159 30.1096 86.4159 29.4139C86.4398 28.7183 86.4517 28.3225 86.4517 28.2266C86.5231 28.1306 86.666 28.0827 86.8803 28.0827C87.1184 28.0827 87.3208 28.1307 87.4874 28.2266C87.7255 28.3466 87.8803 28.5265 87.9517 28.7664C88.0469 29.0063 88.1064 29.438 88.1302 30.0617C88.154 30.6614 88.1658 31.5849 88.1657 32.8322C88.0943 33.7917 88.0585 34.6313 88.0585 35.3509C88.0584 36.0465 88.0941 36.4423 88.1655 36.5383C88.2608 36.7062 88.3679 36.7542 88.487 36.6822C88.6298 36.5863 88.8798 36.3584 89.237 35.9986C89.4275 35.7348 89.6656 35.387 89.9514 34.9552C90.2371 34.4995 90.4633 34.1397 90.63 33.8758C90.8919 33.54 91.13 33.2162 91.3443 32.9044C91.5825 32.5925 91.7491 32.3887 91.8444 32.2927C91.9396 32.1008 92.0587 31.9209 92.2016 31.753C92.3444 31.5851 92.4635 31.4172 92.5587 31.2493C92.8207 30.7936 93.0945 30.4218 93.3802 30.1339C93.666 29.8221 93.8564 29.6662 93.9517 29.6662C94.0469 29.7382 94.1303 29.7622 94.2017 29.7382C94.2969 29.6902 94.3922 29.6663 94.4874 29.6663C94.6541 29.4984 94.8803 29.4984 95.166 29.6663C95.2612 29.7383 95.3445 29.8222 95.416 29.9182C95.4874 29.9901 95.5231 30.0741 95.5231 30.17C95.5231 30.29 95.4278 30.5418 95.2373 30.9256C95.0707 31.3094 94.8683 31.6812 94.6301 32.041C94.4158 32.3768 94.2491 32.5807 94.1301 32.6527C94.1301 32.6527 94.0944 32.6886 94.0229 32.7606C93.9515 32.8326 93.8682 32.9165 93.7729 33.0124C93.7253 33.1804 93.5705 33.4802 93.3086 33.9119C93.0467 34.3197 92.7252 34.7874 92.3442 35.3151C91.9632 35.8428 91.5703 36.3705 91.1656 36.8982C90.7608 37.4259 90.4036 37.8937 90.094 38.3014C89.8559 38.6372 89.5821 38.9371 89.2726 39.2009C88.963 39.4408 88.713 39.6087 88.5225 39.7046Z" fill="#F23322"/>
<path d="M100.132 40.9646C99.084 40.9645 98.2269 40.5687 97.5603 39.7771C96.8936 38.9615 96.5723 37.954 96.5961 36.7546C96.6438 35.8911 96.8105 34.9676 97.0963 33.9841C97.4059 32.9767 97.8107 32.0172 98.3107 31.1057C98.8108 30.1702 99.3585 29.3547 99.9537 28.6591C100.549 27.9635 101.168 27.4718 101.811 27.184C102.049 27.0641 102.299 26.9681 102.561 26.8962C102.847 26.8242 103.132 26.7883 103.418 26.7883C103.68 26.7883 103.954 26.8363 104.24 26.9322C104.525 27.0042 104.763 27.0882 104.954 27.1841C105.359 27.3521 105.668 27.556 105.882 27.7959C106.097 28.0358 106.287 28.4076 106.454 28.9113C106.525 29.3671 106.561 29.6909 106.561 29.8828C106.561 30.0747 106.501 30.3625 106.382 30.7463C106.096 31.6099 105.727 32.3535 105.275 32.9771C104.823 33.6007 104.215 34.1284 103.453 34.5602C103.263 34.6801 103.037 34.776 102.775 34.848C102.537 34.8959 102.287 34.9199 102.025 34.9199C101.549 34.9199 101.084 34.8359 100.632 34.6679C100.203 34.476 99.8582 34.2001 99.5963 33.8403L99.3463 33.5525L99.2392 33.8403C99.001 34.4879 98.8105 35.0876 98.6676 35.6393C98.5486 36.191 98.489 36.6948 98.489 37.1505C98.489 37.4384 98.5128 37.7142 98.5604 37.9781C98.6318 38.2419 98.727 38.4698 98.8461 38.6617C98.9413 38.8057 99.096 38.9136 99.3103 38.9856C99.5484 39.0336 99.7984 39.0576 100.06 39.0576C100.227 39.0576 100.394 39.0576 100.56 39.0576C100.751 39.0336 100.929 38.9857 101.096 38.9137C101.501 38.7698 101.822 38.6139 102.06 38.446C102.322 38.2781 102.584 38.0982 102.846 37.9064L102.989 37.8344L102.953 37.8344C103.239 37.6905 103.489 37.5466 103.703 37.4027C103.941 37.2588 104.06 37.1868 104.06 37.1868C104.156 37.1868 104.251 37.1268 104.346 37.0069C104.537 36.911 104.775 36.947 105.06 37.1149C105.37 37.2828 105.525 37.4987 105.525 37.7626C105.501 37.8825 105.394 38.0744 105.203 38.3383C105.013 38.5781 104.798 38.806 104.56 39.0219C104.346 39.2377 104.167 39.3577 104.025 39.3816C104.001 39.4056 103.917 39.4536 103.775 39.5255C103.632 39.5735 103.537 39.6215 103.489 39.6694L103.525 39.6695C103.31 39.9573 103.096 40.1012 102.882 40.1012L102.596 40.1012C102.501 40.2691 102.191 40.461 101.667 40.6768C101.144 40.8687 100.632 40.9646 100.132 40.9646ZM101.739 33.0489C102.168 33.0489 102.537 32.929 102.846 32.6891C103.18 32.4253 103.465 32.1374 103.704 31.8256C104.18 31.178 104.454 30.5543 104.525 29.9547C104.62 29.331 104.549 28.8992 104.311 28.6593C104.168 28.5874 104.037 28.5514 103.918 28.5514C103.823 28.5274 103.62 28.5633 103.311 28.6593C103.097 28.7072 102.799 28.8871 102.418 29.1989C102.037 29.5108 101.656 29.8585 101.275 30.2423C100.918 30.6261 100.644 30.9499 100.454 31.2138L99.9893 31.9693C100.18 31.8974 100.358 31.8614 100.525 31.8614C100.715 31.8374 100.823 31.8494 100.846 31.8974C100.846 32.1133 100.882 32.3172 100.954 32.5091C101.049 32.677 101.156 32.809 101.275 32.9049C101.418 33.0009 101.573 33.0489 101.739 33.0489Z" fill="#F23322"/>
<path d="M110.103 40.0296C109.984 40.2695 109.805 40.3414 109.567 40.2455C109.353 40.1495 109.174 40.0536 109.032 39.9576C108.865 39.9576 108.722 39.9096 108.603 39.8137C108.484 39.7177 108.401 39.5738 108.353 39.3819C108.305 39.2379 108.294 39.07 108.317 38.8781C108.341 38.6622 108.389 38.4224 108.46 38.1585C108.556 37.8707 108.651 37.5589 108.746 37.223C108.937 36.4315 109.068 35.8558 109.139 35.496C109.21 35.1362 109.282 34.8243 109.353 34.5605C109.425 34.2966 109.52 33.9128 109.639 33.4091C109.83 32.9294 109.984 32.4616 110.103 32.0059C110.223 31.5501 110.401 31.0944 110.639 30.6386C110.806 30.015 111.008 29.4273 111.247 28.8756C111.508 28.2999 111.758 27.8202 111.997 27.4364C112.044 27.3644 112.128 27.2685 112.247 27.1486C112.389 27.0286 112.509 26.9687 112.604 26.9687C112.794 26.7768 112.961 26.7048 113.104 26.7528C113.27 26.7768 113.473 26.8848 113.711 27.0767C113.997 27.3885 114.104 27.7484 114.032 28.1561C113.985 28.5639 113.699 29.1636 113.175 29.9551C112.889 30.6987 112.627 31.3464 112.389 31.8981C112.151 32.4258 111.984 32.9295 111.889 33.4092C112.151 33.0254 112.437 32.6776 112.746 32.3658C113.08 32.03 113.354 31.7542 113.568 31.5383C114.092 31.0106 114.52 30.6268 114.854 30.387C115.211 30.1471 115.627 29.8713 116.104 29.5595C116.389 29.3676 116.663 29.1997 116.925 29.0558C117.187 28.8879 117.473 28.768 117.782 28.696C118.116 28.6241 118.473 28.6241 118.854 28.6961C119.092 28.6721 119.282 28.7441 119.425 28.912C119.592 29.0799 119.723 29.3078 119.818 29.5957C119.913 29.8835 119.973 30.2194 119.996 30.6032C119.449 30.4832 118.961 30.5072 118.532 30.675C118.104 30.8189 117.735 30.9988 117.425 31.2147C117.139 31.4306 116.913 31.5985 116.746 31.7184C116.389 31.9582 115.937 32.282 115.389 32.6898C114.842 33.0736 114.294 33.5413 113.746 34.093C113.318 34.5727 112.949 34.9805 112.639 35.3163C112.353 35.6521 112.115 35.9519 111.925 36.2157C111.758 36.4796 111.627 36.7554 111.532 37.0433C111.294 37.595 111.044 38.1946 110.782 38.8423C110.52 39.4899 110.294 39.8857 110.103 40.0296Z" fill="#F23322"/>
<path d="M126.758 42.0455C126.187 42.1174 125.747 42.1534 125.437 42.1533C125.151 42.1533 124.878 42.1173 124.616 42.0454C124.378 41.9734 124.056 41.8774 123.651 41.7574C123.318 41.5415 123.032 41.3376 122.794 41.1457C122.58 40.9538 122.413 40.8099 122.294 40.7139C122.294 40.594 122.259 40.498 122.187 40.4261C122.139 40.3541 122.116 40.3181 122.116 40.3181C122.02 40.3181 121.937 40.1142 121.866 39.7064C121.818 39.2747 121.794 38.7709 121.794 38.1952C121.818 37.6195 121.854 37.0798 121.902 36.5761C121.973 36.0724 122.056 35.7366 122.152 35.5686C122.152 35.4487 122.175 35.3048 122.223 35.1369C122.295 34.945 122.33 34.7891 122.33 34.6691C122.33 34.2614 122.39 34.0575 122.509 34.0575C122.509 34.0575 122.533 34.0575 122.58 34.0575C122.652 34.0335 122.687 33.9855 122.687 33.9136C122.687 33.7696 122.735 33.5777 122.83 33.3379C122.926 33.074 122.997 32.8341 123.045 32.6183C123.164 32.4024 123.307 32.0306 123.473 31.5029C123.664 30.9752 123.842 30.4834 124.009 30.0277C124.128 29.5 124.295 28.9723 124.509 28.4446C124.724 27.9168 124.878 27.4971 124.974 27.1852C125.307 26.6096 125.474 26.1778 125.474 25.89C125.521 25.7221 125.676 25.3622 125.938 24.8106C126.224 24.2589 126.545 23.6112 126.902 22.8676C127.283 22.1241 127.664 21.3685 128.045 20.6009C128.45 19.8333 128.807 19.1617 129.117 18.586C129.45 18.0104 129.7 17.6146 129.867 17.3987C130.248 16.919 130.534 16.6191 130.724 16.4992C130.915 16.3793 131.117 16.3193 131.331 16.3194C131.45 16.3673 131.593 16.4753 131.76 16.6432C131.95 16.8111 132.129 16.991 132.296 17.1829C132.462 17.3749 132.557 17.5428 132.581 17.6867C132.581 17.7347 132.486 17.9146 132.296 18.2264C132.105 18.5382 131.867 18.886 131.581 19.2698C131.295 19.6536 131.022 19.9894 130.76 20.2772C130.688 20.3732 130.641 20.4571 130.617 20.5291C130.617 20.601 130.617 20.637 130.617 20.637C130.617 20.637 130.533 20.7809 130.367 21.0688C130.224 21.3326 130.045 21.6684 129.831 22.0762C129.617 22.46 129.426 22.8318 129.26 23.1916C129.093 23.5514 128.998 23.8153 128.974 23.9832C128.831 24.1511 128.629 24.4989 128.367 25.0266C128.128 25.5303 127.89 26.082 127.652 26.6817C127.414 27.2573 127.2 27.7611 127.009 28.1928C126.819 28.6246 126.7 28.8644 126.652 28.9124C126.652 29.0324 126.64 29.1523 126.616 29.2722C126.616 29.3682 126.569 29.4761 126.473 29.596C126.402 29.764 126.271 30.1477 126.081 30.7474C125.914 31.3231 125.676 31.9228 125.366 32.5464C125.199 33.266 124.997 33.9017 124.759 34.4534C124.521 35.0051 124.342 35.3409 124.223 35.4608C124.128 35.7007 124.08 35.8446 124.08 35.8926C124.08 35.9166 124.128 35.9166 124.223 35.8926C124.342 35.7727 124.402 35.7607 124.402 35.8566C124.402 35.9286 124.342 36.0605 124.223 36.2524C124.128 36.4923 124.044 36.7681 123.973 37.0799C123.902 37.3918 123.866 37.7156 123.866 38.0514C123.913 38.867 124.032 39.4067 124.223 39.6706C124.413 39.9345 124.806 40.0544 125.401 40.0305C126.211 39.9825 126.961 39.8986 127.651 39.7787C128.342 39.6588 128.902 39.5509 129.33 39.455C130.116 39.1912 130.794 39.0713 131.366 39.0953C131.961 39.0953 132.378 39.2513 132.616 39.5631C132.759 39.779 132.842 39.9469 132.866 40.0669C132.89 40.1868 132.902 40.3067 132.901 40.4267C132.83 40.5226 132.544 40.6665 132.044 40.8584C131.568 41.0263 130.997 41.1942 130.33 41.362C129.663 41.5539 128.997 41.7098 128.33 41.8297C127.687 41.9496 127.163 42.0215 126.758 42.0455Z" fill="#F23322"/>
<path d="M140.001 40.6429C139.691 40.6669 139.441 40.6429 139.251 40.5709C139.06 40.475 138.822 40.343 138.537 40.1751C138.013 39.7673 137.62 39.3595 137.358 38.9517C137.12 38.5199 137.013 38.1001 137.037 37.6923C137.084 37.4765 137.084 37.2846 137.037 37.1166C137.013 36.9487 137.001 36.8648 137.001 36.8648C136.858 36.7448 136.811 36.6729 136.858 36.6489C136.906 36.6009 136.942 36.529 136.965 36.433C137.156 36.385 137.18 36.2531 137.037 36.0372C136.965 35.8453 137.001 35.4135 137.144 34.7419C137.311 34.0463 137.525 33.3986 137.787 32.799C137.906 32.5351 138.073 32.1873 138.287 31.7556C138.525 31.3238 138.787 30.892 139.073 30.4603C139.359 30.0045 139.621 29.6447 139.859 29.3809C140.382 28.7812 140.847 28.3375 141.252 28.0497C141.68 27.7379 142.156 27.486 142.68 27.2942C143.156 27.1023 143.502 26.9944 143.716 26.9704C143.93 26.9464 144.228 27.0904 144.609 27.4022C145.18 27.5701 145.609 27.81 145.894 28.1219C146.204 28.4098 146.442 28.8655 146.609 29.4892C146.799 30.1849 146.859 31.0124 146.787 31.9719C146.739 32.9074 146.335 34.1187 145.573 35.6059C145.12 36.5414 144.668 37.249 144.215 37.7287C143.787 38.2084 143.263 38.7121 142.644 39.2398C142.191 39.6236 141.775 39.9234 141.394 40.1393C141.013 40.3551 140.549 40.523 140.001 40.6429ZM142.858 36.3614C143.335 35.6418 143.704 34.9821 143.966 34.3825C144.251 33.7588 144.478 32.9792 144.644 32.0437C144.692 31.7799 144.704 31.4561 144.68 31.0723C144.656 30.6645 144.597 30.2927 144.502 29.9568C144.43 29.621 144.323 29.4411 144.18 29.4171C143.871 29.2972 143.525 29.2971 143.144 29.4171C142.763 29.513 142.347 29.8008 141.894 30.2805C141.49 30.7603 141.12 31.2999 140.787 31.8996C140.478 32.4993 140.192 33.1589 139.93 33.8785C139.668 34.5981 139.418 35.3657 139.18 36.1813C138.942 37.0928 138.953 37.7884 139.215 38.2682C139.501 38.7479 139.965 38.8679 140.608 38.628C141.251 38.3642 142.001 37.6087 142.858 36.3614Z" fill="#F23322"/>
<path d="M151.949 38.6646C151.782 38.5207 151.568 38.0889 151.306 37.3693C151.068 36.6497 150.83 35.8101 150.592 34.8506C150.378 33.8671 150.199 32.9676 150.056 32.152C149.961 31.6722 149.854 31.2644 149.735 30.9286C149.64 30.5928 149.556 30.3169 149.485 30.101C149.366 29.6693 149.33 29.3095 149.378 29.0216C149.426 28.7338 149.592 28.5059 149.878 28.338C149.997 28.266 150.14 28.2181 150.307 28.1941C150.497 28.1461 150.64 28.1342 150.735 28.1581C151.021 28.2541 151.283 28.6979 151.521 29.4895C151.759 30.2571 151.973 31.2766 152.164 32.5479C152.259 33.2915 152.378 33.9272 152.521 34.4549C152.663 34.9826 152.735 35.2945 152.735 35.3904C152.83 35.5823 152.937 35.7742 153.056 35.9661C153.199 36.1341 153.366 36.1221 153.556 35.9302C153.651 35.8342 153.842 35.6184 154.128 35.2826C154.437 34.9467 154.735 34.587 155.021 34.2032C155.521 33.5316 155.914 32.9799 156.199 32.5481C156.509 32.1164 156.854 31.6606 157.235 31.1809C157.402 30.941 157.592 30.6772 157.807 30.3893C158.021 30.1015 158.235 29.8377 158.449 29.5978C158.688 29.334 158.902 29.1781 159.092 29.1301C159.664 29.0342 159.973 29.1541 160.021 29.4899C160.069 29.8258 159.854 30.3295 159.378 31.0011C159.187 31.2889 159.033 31.5648 158.914 31.8286C158.818 32.0685 158.723 32.2364 158.628 32.3324C158.437 32.7161 158.14 33.2079 157.735 33.8075C157.33 34.3832 156.937 34.9229 156.556 35.4266C156.175 35.9063 155.913 36.2182 155.771 36.3621C155.675 36.458 155.461 36.6379 155.128 36.9017C154.818 37.1656 154.52 37.5014 154.235 37.9092C153.663 38.4608 153.211 38.7966 152.877 38.9166C152.544 39.0365 152.235 38.9525 151.949 38.6646Z" fill="#F23322"/>
<path d="M167.094 39.601C166.594 40.0327 166.01 40.2846 165.344 40.3565C164.701 40.4284 164.07 40.3324 163.451 40.0685C162.832 39.7806 162.32 39.3488 161.915 38.7731C161.51 38.2454 161.249 37.6457 161.13 36.974C161.011 36.2784 160.999 35.3789 161.094 34.2755C161.166 33.34 161.463 32.4045 161.987 31.469C162.511 30.5095 163.142 29.658 163.88 28.9145C164.642 28.1709 165.392 27.6552 166.13 27.3674C166.487 27.1276 166.785 27.0196 167.023 27.0436C167.285 27.0436 167.678 27.0676 168.202 27.1157C168.749 27.1876 169.154 27.2956 169.416 27.4395C169.702 27.5835 169.928 27.7754 170.094 28.0153C170.452 28.3751 170.69 28.7349 170.809 29.0947C170.928 29.4306 170.987 29.7664 170.987 30.1022C170.892 30.6299 170.535 31.2776 169.916 32.0451C169.32 32.7887 168.535 33.4003 167.558 33.88C167.035 34.0479 166.463 34.1198 165.844 34.0958C165.225 34.0718 164.713 33.9159 164.308 33.628C163.856 33.4361 163.558 33.472 163.416 33.7359C163.273 33.9757 163.142 34.5754 163.023 35.5349C162.927 36.4464 162.999 37.1181 163.237 37.5499C163.475 37.9576 163.796 38.1975 164.201 38.2695C164.677 38.3655 165.046 38.4375 165.308 38.4855C165.594 38.5095 165.939 38.4015 166.344 38.1617C166.725 37.9218 166.963 37.7899 167.058 37.7659C167.153 37.718 167.225 37.67 167.272 37.622C167.344 37.5501 167.499 37.3942 167.737 37.1543C167.903 36.9864 168.034 36.8665 168.13 36.7945C168.225 36.6986 168.332 36.6506 168.451 36.6506C168.57 36.6506 168.677 36.7106 168.773 36.8305C168.868 36.9265 168.963 36.9985 169.058 37.0464C169.296 37.0465 169.344 37.1904 169.201 37.4782C169.082 37.7661 168.832 38.1139 168.451 38.5216C168.07 38.9054 167.618 39.2652 167.094 39.601ZM167.059 31.973C167.32 31.8531 167.594 31.6852 167.88 31.4693C168.166 31.2295 168.404 30.9776 168.594 30.7138C168.809 30.4259 168.916 30.1861 168.916 29.9942C168.916 29.6583 168.761 29.3825 168.452 29.1666C168.142 28.9267 167.678 28.8907 167.059 29.0586C166.797 29.1305 166.499 29.3104 166.166 29.5982C165.832 29.8621 165.511 30.1619 165.201 30.4977C164.916 30.8335 164.678 31.1333 164.487 31.3972C164.32 31.661 164.261 31.8169 164.308 31.8649C164.38 31.9849 164.582 32.0808 164.916 32.1528C165.249 32.2008 165.618 32.2128 166.023 32.1888C166.451 32.1649 166.797 32.0929 167.059 31.973Z" fill="#F23322"/>
<path d="M174.601 39.7453C174.529 39.7693 174.41 39.7573 174.244 39.7093C174.077 39.6613 173.91 39.6014 173.744 39.5294C173.577 39.4574 173.47 39.3974 173.422 39.3495C173.327 39.2535 173.232 39.1096 173.137 38.9177C173.065 38.7258 173.065 38.4499 173.137 38.0901C173.208 37.7063 173.446 37.2146 173.851 36.6149C173.97 36.3751 174.113 36.0153 174.28 35.5355C174.446 35.0558 174.613 34.5521 174.78 34.0244C174.97 33.4727 175.137 32.9809 175.28 32.5492C175.447 32.1174 175.566 31.8176 175.637 31.6497C175.685 31.2419 175.661 30.954 175.566 30.7861C175.494 30.5942 175.292 30.4863 174.958 30.4623C174.72 30.4622 174.53 30.4382 174.387 30.3903C174.268 30.3423 174.209 30.1024 174.209 29.6706C174.256 29.3348 174.34 29.1069 174.459 28.987C174.601 28.8431 174.792 28.6872 175.03 28.5193C175.268 28.3994 175.506 28.3154 175.744 28.2675C176.006 28.2195 176.256 28.2075 176.494 28.2315C176.732 28.2555 176.923 28.3395 177.066 28.4834C177.232 28.5794 177.34 28.7953 177.387 29.1311C177.435 29.4429 177.459 29.7668 177.459 30.1026C177.482 30.4384 177.506 30.6903 177.53 30.8582C177.768 30.6663 178.089 30.4025 178.494 30.0667C178.923 29.7069 179.292 29.3711 179.601 29.0592C179.982 28.7954 180.435 28.5316 180.959 28.2677C181.483 27.9799 181.863 27.836 182.102 27.836C182.363 27.836 182.625 27.908 182.887 28.052C183.149 28.1719 183.328 28.3278 183.423 28.5197C183.661 28.9275 183.768 29.2874 183.744 29.5992C183.744 29.911 183.613 30.2348 183.351 30.5707C183.113 30.8825 182.816 31.0983 182.459 31.2183C182.125 31.3382 181.911 31.3981 181.816 31.3981C181.673 31.3981 181.494 31.2902 181.28 31.0743C181.066 30.8584 180.947 30.6785 180.923 30.5345C180.923 30.4626 180.768 30.5345 180.459 30.7504C180.173 30.9423 179.851 31.1941 179.494 31.5059C179.137 31.7938 178.839 32.0576 178.601 32.2975C178.196 32.8012 177.768 33.4848 177.315 34.3483C176.863 35.2118 176.327 36.2553 175.708 37.4786C175.422 38.0782 175.22 38.594 175.101 39.0257C174.982 39.4335 174.815 39.6734 174.601 39.7453Z" fill="#F23322"/>
</svg>
